<svg width="224" height="32" viewBox="0 0 224 32" fill="none" xmlns="http://www.w3.org/2000/svg">
<g filter="url(#filter0_d_1_51)">
<path d="M4.20739 23.0909V8.09091H7.19034V9.9233H7.32528C7.45786 9.62973 7.64962 9.33144 7.90057 9.02841C8.15625 8.72064 8.48769 8.46496 8.89489 8.26136C9.30682 8.05303 9.81818 7.94886 10.429 7.94886C11.2244 7.94886 11.9583 8.1572 12.6307 8.57386C13.303 8.9858 13.8404 9.60843 14.2429 10.4418C14.6454 11.2704 14.8466 12.3097 14.8466 13.5597C14.8466 14.7765 14.6501 15.804 14.2571 16.642C13.8688 17.4754 13.3385 18.1075 12.6662 18.5384C11.9986 18.9645 11.2505 19.1776 10.4219 19.1776C9.83475 19.1776 9.33523 19.0805 8.9233 18.8864C8.5161 18.6922 8.18229 18.4484 7.92188 18.1548C7.66146 17.8565 7.46259 17.5559 7.32528 17.2528H7.23295V23.0909H4.20739ZM7.16903 13.5455C7.16903 14.1941 7.259 14.7599 7.43892 15.2429C7.61884 15.7259 7.87926 16.1023 8.22017 16.3722C8.56108 16.6373 8.97538 16.7699 9.46307 16.7699C9.95549 16.7699 10.3722 16.6349 10.7131 16.3651C11.054 16.0904 11.312 15.7116 11.4872 15.2287C11.6671 14.741 11.7571 14.1799 11.7571 13.5455C11.7571 12.9157 11.6695 12.3617 11.4943 11.8835C11.3191 11.4053 11.0611 11.0312 10.7202 10.7614C10.3793 10.4915 9.96023 10.3565 9.46307 10.3565C8.97064 10.3565 8.55398 10.4867 8.21307 10.7472C7.87689 11.0076 7.61884 11.3769 7.43892 11.8551C7.259 12.3333 7.16903 12.8968 7.16903 13.5455ZM25.5403 11.2017L22.7705 11.3722C22.7231 11.1354 22.6213 10.9223 22.4651 10.733C22.3088 10.5388 22.1028 10.3849 21.8472 10.2713C21.5962 10.1529 21.2955 10.0938 20.9452 10.0938C20.4764 10.0938 20.0811 10.1932 19.7591 10.392C19.4371 10.5862 19.2761 10.8466 19.2761 11.1733C19.2761 11.4337 19.3803 11.6539 19.5886 11.8338C19.797 12.0137 20.1545 12.1581 20.6611 12.267L22.6355 12.6648C23.6961 12.8826 24.4868 13.233 25.0077 13.7159C25.5285 14.1989 25.7889 14.8333 25.7889 15.6193C25.7889 16.3343 25.5782 16.9616 25.1568 17.5014C24.7402 18.0412 24.1672 18.4626 23.4381 18.7656C22.7136 19.0639 21.8779 19.2131 20.931 19.2131C19.4868 19.2131 18.3363 18.9124 17.4793 18.3111C16.627 17.705 16.1275 16.8812 15.9807 15.8395L18.9565 15.6832C19.0465 16.1236 19.2643 16.4598 19.6099 16.6918C19.9556 16.919 20.3983 17.0327 20.9381 17.0327C21.4684 17.0327 21.8945 16.9309 22.2165 16.7273C22.5432 16.5189 22.7089 16.2514 22.7136 15.9247C22.7089 15.6501 22.5929 15.4252 22.3656 15.25C22.1384 15.0701 21.788 14.9328 21.3145 14.8381L19.4253 14.4616C18.3599 14.2486 17.5669 13.8793 17.046 13.3537C16.5299 12.8281 16.2719 12.1581 16.2719 11.3438C16.2719 10.643 16.4613 10.0393 16.8401 9.53267C17.2236 9.02604 17.761 8.63542 18.4523 8.3608C19.1483 8.08617 19.9627 7.94886 20.8955 7.94886C22.2733 7.94886 23.3576 8.24006 24.1483 8.82244C24.9438 9.40483 25.4078 10.1979 25.5403 11.2017ZM29.162 23.0909C28.7785 23.0909 28.4186 23.0601 28.0825 22.9986C27.751 22.9418 27.4764 22.8684 27.2586 22.7784L27.9404 20.5199C28.2955 20.6288 28.6151 20.688 28.8992 20.6974C29.188 20.7069 29.4366 20.6406 29.645 20.4986C29.858 20.3565 30.0308 20.1151 30.1634 19.7741L30.341 19.3125L26.4276 8.09091H29.6094L31.868 16.1023H31.9816L34.2614 8.09091H37.4646L33.2245 20.179C33.0209 20.7661 32.7439 21.2775 32.3935 21.7131C32.0479 22.1534 31.6099 22.492 31.0796 22.7287C30.5493 22.9702 29.9101 23.0909 29.162 23.0909ZM43.1903 19.2131C42.0728 19.2131 41.1117 18.9763 40.3067 18.5028C39.5066 18.0246 38.891 17.3617 38.4602 16.5142C38.034 15.6667 37.821 14.6913 37.821 13.5881C37.821 12.4706 38.0364 11.4905 38.4673 10.6477C38.9029 9.80019 39.5208 9.13968 40.321 8.66619C41.1211 8.18797 42.0728 7.94886 43.1761 7.94886C44.1278 7.94886 44.9611 8.12169 45.6761 8.46733C46.391 8.81297 46.9568 9.2983 47.3735 9.9233C47.7902 10.5483 48.0198 11.2822 48.0624 12.125H45.2073C45.1268 11.5805 44.9138 11.1425 44.5681 10.8111C44.2272 10.4749 43.7798 10.3068 43.2258 10.3068C42.757 10.3068 42.3475 10.4347 41.9971 10.6903C41.6514 10.9413 41.3816 11.3082 41.1874 11.7912C40.9933 12.2741 40.8962 12.8589 40.8962 13.5455C40.8962 14.2415 40.9909 14.8333 41.1803 15.321C41.3745 15.8087 41.6467 16.1804 41.9971 16.4361C42.3475 16.6918 42.757 16.8196 43.2258 16.8196C43.5714 16.8196 43.8816 16.7486 44.1562 16.6065C44.4355 16.4645 44.6652 16.2585 44.8451 15.9886C45.0298 15.714 45.1505 15.3849 45.2073 15.0014H48.0624C48.0151 15.8348 47.7878 16.5687 47.3806 17.2031C46.9781 17.8329 46.4218 18.3253 45.7116 18.6804C45.0013 19.0355 44.1609 19.2131 43.1903 19.2131ZM52.6251 12.6932V19H49.5996V4.45455H52.5399V10.0156H52.6678C52.914 9.37169 53.3117 8.86742 53.8609 8.50284C54.4102 8.13352 55.0991 7.94886 55.9277 7.94886C56.6853 7.94886 57.3458 8.11458 57.9092 8.44602C58.4774 8.77273 58.9178 9.24384 59.2303 9.85938C59.5475 10.4702 59.7037 11.2017 59.699 12.054V19H56.6734V12.5938C56.6782 11.9214 56.5077 11.3982 56.1621 11.0241C55.8212 10.6501 55.3429 10.4631 54.7274 10.4631C54.3155 10.4631 53.9509 10.5507 53.6337 10.7259C53.3212 10.901 53.075 11.1567 52.895 11.4929C52.7198 11.8243 52.6299 12.2244 52.6251 12.6932ZM66.609 19.2131C65.5058 19.2131 64.5517 18.9787 63.7468 18.5099C62.9466 18.0365 62.3287 17.3783 61.8931 16.5355C61.4575 15.688 61.2397 14.7055 61.2397 13.5881C61.2397 12.4612 61.4575 11.4763 61.8931 10.6335C62.3287 9.78598 62.9466 9.12784 63.7468 8.65909C64.5517 8.18561 65.5058 7.94886 66.609 7.94886C67.7122 7.94886 68.6639 8.18561 69.4641 8.65909C70.2691 9.12784 70.8893 9.78598 71.3249 10.6335C71.7605 11.4763 71.9783 12.4612 71.9783 13.5881C71.9783 14.7055 71.7605 15.688 71.3249 16.5355C70.8893 17.3783 70.2691 18.0365 69.4641 18.5099C68.6639 18.9787 67.7122 19.2131 66.609 19.2131ZM66.6232 16.8693C67.1251 16.8693 67.5442 16.7273 67.8803 16.4432C68.2165 16.1544 68.4698 15.7614 68.6403 15.2642C68.8155 14.767 68.9031 14.2012 68.9031 13.5668C68.9031 12.9323 68.8155 12.3665 68.6403 11.8693C68.4698 11.3722 68.2165 10.9792 67.8803 10.6903C67.5442 10.4015 67.1251 10.2571 66.6232 10.2571C66.1166 10.2571 65.6905 10.4015 65.3448 10.6903C65.0039 10.9792 64.7459 11.3722 64.5707 11.8693C64.4002 12.3665 64.315 12.9323 64.315 13.5668C64.315 14.2012 64.4002 14.767 64.5707 15.2642C64.7459 15.7614 65.0039 16.1544 65.3448 16.4432C65.6905 16.7273 66.1166 16.8693 66.6232 16.8693ZM76.5712 4.45455V19H73.5457V4.45455H76.5712ZM83.5239 19.2131C82.4206 19.2131 81.4666 18.9787 80.6616 18.5099C79.8615 18.0365 79.2436 17.3783 78.808 16.5355C78.3723 15.688 78.1545 14.7055 78.1545 13.5881C78.1545 12.4612 78.3723 11.4763 78.808 10.6335C79.2436 9.78598 79.8615 9.12784 80.6616 8.65909C81.4666 8.18561 82.4206 7.94886 83.5239 7.94886C84.6271 7.94886 85.5788 8.18561 86.379 8.65909C87.1839 9.12784 87.8042 9.78598 88.2398 10.6335C88.6754 11.4763 88.8932 12.4612 88.8932 13.5881C88.8932 14.7055 88.6754 15.688 88.2398 16.5355C87.8042 17.3783 87.1839 18.0365 86.379 18.5099C85.5788 18.9787 84.6271 19.2131 83.5239 19.2131ZM83.5381 16.8693C84.04 16.8693 84.459 16.7273 84.7952 16.4432C85.1313 16.1544 85.3847 15.7614 85.5551 15.2642C85.7303 14.767 85.8179 14.2012 85.8179 13.5668C85.8179 12.9323 85.7303 12.3665 85.5551 11.8693C85.3847 11.3722 85.1313 10.9792 84.7952 10.6903C84.459 10.4015 84.04 10.2571 83.5381 10.2571C83.0314 10.2571 82.6053 10.4015 82.2597 10.6903C81.9187 10.9792 81.6607 11.3722 81.4855 11.8693C81.3151 12.3665 81.2298 12.9323 81.2298 13.5668C81.2298 14.2012 81.3151 14.767 81.4855 15.2642C81.6607 15.7614 81.9187 16.1544 82.2597 16.4432C82.6053 16.7273 83.0314 16.8693 83.5381 16.8693ZM95.3753 23.3182C94.3952 23.3182 93.5547 23.1832 92.854 22.9134C92.158 22.6482 91.604 22.286 91.192 21.8267C90.7801 21.3674 90.5126 20.8513 90.3895 20.2784L93.1878 19.902C93.273 20.1198 93.408 20.3234 93.5926 20.5128C93.7773 20.7022 94.0211 20.8537 94.3242 20.9673C94.6319 21.0857 95.006 21.1449 95.4463 21.1449C96.1045 21.1449 96.6466 20.9839 97.0727 20.6619C97.5036 20.3447 97.719 19.812 97.719 19.0639V17.0682H97.5912C97.4586 17.3712 97.2598 17.6577 96.9946 17.9276C96.7295 18.1974 96.3885 18.4176 95.9719 18.5881C95.5552 18.7585 95.0581 18.8438 94.4804 18.8438C93.6613 18.8438 92.9155 18.6544 92.2432 18.2756C91.5756 17.892 91.0429 17.3073 90.6452 16.5213C90.2522 15.7306 90.0557 14.7315 90.0557 13.5241C90.0557 12.2884 90.2569 11.2562 90.6594 10.4276C91.0618 9.59896 91.5969 8.97869 92.2645 8.56676C92.9368 8.15483 93.6731 7.94886 94.4733 7.94886C95.0841 7.94886 95.5955 8.05303 96.0074 8.26136C96.4193 8.46496 96.7508 8.72064 97.0017 9.02841C97.2574 9.33144 97.4539 9.62973 97.5912 9.9233H97.7048V8.09091H100.709V19.1065C100.709 20.0346 100.482 20.8111 100.027 21.4361C99.5727 22.0611 98.943 22.5298 98.1381 22.8423C97.3379 23.1596 96.417 23.3182 95.3753 23.3182ZM95.4392 16.571C95.9269 16.571 96.3388 16.4503 96.675 16.2088C97.0159 15.9626 97.2763 15.6122 97.4563 15.1577C97.6409 14.6984 97.7332 14.1491 97.7332 13.5099C97.7332 12.8707 97.6433 12.3168 97.4634 11.848C97.2834 11.3745 97.023 11.0076 96.6821 10.7472C96.3412 10.4867 95.9269 10.3565 95.4392 10.3565C94.942 10.3565 94.523 10.4915 94.1821 10.7614C93.8412 11.0265 93.5831 11.3958 93.408 11.8693C93.2328 12.3428 93.1452 12.8897 93.1452 13.5099C93.1452 14.1397 93.2328 14.6842 93.408 15.1435C93.5879 15.598 93.8459 15.9508 94.1821 16.2017C94.523 16.4479 94.942 16.571 95.4392 16.571ZM102.717 19V8.09091H105.742V19H102.717ZM104.237 6.68466C103.787 6.68466 103.401 6.53551 103.079 6.23722C102.762 5.93419 102.603 5.57197 102.603 5.15057C102.603 4.7339 102.762 4.37642 103.079 4.07812C103.401 3.77509 103.787 3.62358 104.237 3.62358C104.686 3.62358 105.07 3.77509 105.387 4.07812C105.709 4.37642 105.87 4.7339 105.87 5.15057C105.87 5.57197 105.709 5.93419 105.387 6.23722C105.07 6.53551 104.686 6.68466 104.237 6.68466ZM116.843 11.2017L114.073 11.3722C114.025 11.1354 113.924 10.9223 113.767 10.733C113.611 10.5388 113.405 10.3849 113.15 10.2713C112.899 10.1529 112.598 10.0938 112.248 10.0938C111.779 10.0938 111.383 10.1932 111.061 10.392C110.739 10.5862 110.578 10.8466 110.578 11.1733C110.578 11.4337 110.683 11.6539 110.891 11.8338C111.099 12.0137 111.457 12.1581 111.963 12.267L113.938 12.6648C114.998 12.8826 115.789 13.233 116.31 13.7159C116.831 14.1989 117.091 14.8333 117.091 15.6193C117.091 16.3343 116.881 16.9616 116.459 17.5014C116.042 18.0412 115.47 18.4626 114.74 18.7656C114.016 19.0639 113.18 19.2131 112.233 19.2131C110.789 19.2131 109.639 18.9124 108.782 18.3111C107.929 17.705 107.43 16.8812 107.283 15.8395L110.259 15.6832C110.349 16.1236 110.567 16.4598 110.912 16.6918C111.258 16.919 111.701 17.0327 112.24 17.0327C112.771 17.0327 113.197 16.9309 113.519 16.7273C113.846 16.5189 114.011 16.2514 114.016 15.9247C114.011 15.6501 113.895 15.4252 113.668 15.25C113.441 15.0701 113.09 14.9328 112.617 14.8381L110.728 14.4616C109.662 14.2486 108.869 13.8793 108.348 13.3537C107.832 12.8281 107.574 12.1581 107.574 11.3438C107.574 10.643 107.764 10.0393 108.142 9.53267C108.526 9.02604 109.063 8.63542 109.755 8.3608C110.451 8.08617 111.265 7.94886 112.198 7.94886C113.576 7.94886 114.66 8.24006 115.451 8.82244C116.246 9.40483 116.71 10.1979 116.843 11.2017ZM124.399 8.09091V10.3636H117.829V8.09091H124.399ZM119.321 5.47727H122.346V15.6477C122.346 15.9271 122.389 16.1449 122.474 16.3011C122.56 16.4527 122.678 16.5592 122.829 16.6207C122.986 16.6823 123.166 16.7131 123.369 16.7131C123.511 16.7131 123.653 16.7012 123.795 16.6776C123.937 16.6491 124.046 16.6278 124.122 16.6136L124.598 18.8651C124.446 18.9124 124.233 18.9669 123.959 19.0284C123.684 19.0947 123.35 19.1349 122.957 19.1491C122.228 19.1776 121.589 19.0805 121.04 18.858C120.495 18.6354 120.071 18.2898 119.768 17.821C119.465 17.3523 119.316 16.7604 119.321 16.0455V5.47727ZM134.91 11.2017L132.14 11.3722C132.093 11.1354 131.991 10.9223 131.835 10.733C131.678 10.5388 131.472 10.3849 131.217 10.2713C130.966 10.1529 130.665 10.0938 130.315 10.0938C129.846 10.0938 129.451 10.1932 129.129 10.392C128.807 10.5862 128.646 10.8466 128.646 11.1733C128.646 11.4337 128.75 11.6539 128.958 11.8338C129.166 12.0137 129.524 12.1581 130.031 12.267L132.005 12.6648C133.066 12.8826 133.856 13.233 134.377 13.7159C134.898 14.1989 135.158 14.8333 135.158 15.6193C135.158 16.3343 134.948 16.9616 134.526 17.5014C134.11 18.0412 133.537 18.4626 132.808 18.7656C132.083 19.0639 131.247 19.2131 130.3 19.2131C128.856 19.2131 127.706 18.9124 126.849 18.3111C125.997 17.705 125.497 16.8812 125.35 15.8395L128.326 15.6832C128.416 16.1236 128.634 16.4598 128.979 16.6918C129.325 16.919 129.768 17.0327 130.308 17.0327C130.838 17.0327 131.264 16.9309 131.586 16.7273C131.913 16.5189 132.078 16.2514 132.083 15.9247C132.078 15.6501 131.962 15.4252 131.735 15.25C131.508 15.0701 131.158 14.9328 130.684 14.8381L128.795 14.4616C127.729 14.2486 126.936 13.8793 126.416 13.3537C125.899 12.8281 125.641 12.1581 125.641 11.3438C125.641 10.643 125.831 10.0393 126.21 9.53267C126.593 9.02604 127.131 8.63542 127.822 8.3608C128.518 8.08617 129.332 7.94886 130.265 7.94886C131.643 7.94886 132.727 8.24006 133.518 8.82244C134.313 9.40483 134.777 10.1979 134.91 11.2017ZM138.283 19.1349C137.895 19.1349 137.561 18.9976 137.282 18.723C137.002 18.4437 136.863 18.1075 136.863 17.7145C136.863 17.3262 137.002 16.9948 137.282 16.7202C137.561 16.4408 137.895 16.3011 138.283 16.3011C138.671 16.3011 139.005 16.4408 139.284 16.7202C139.564 16.9948 139.703 17.3262 139.703 17.7145C139.703 17.9749 139.637 18.214 139.505 18.4318C139.377 18.6449 139.206 18.8153 138.993 18.9432C138.78 19.071 138.543 19.1349 138.283 19.1349Z" fill="#FF76E1" fill-opacity="0.65"/>
<path d="M150.663 10.9744L148.32 11.2301C148.253 10.9934 148.137 10.7708 147.972 10.5625C147.811 10.3542 147.593 10.1861 147.318 10.0582C147.044 9.9304 146.708 9.86648 146.31 9.86648C145.775 9.86648 145.325 9.98248 144.96 10.2145C144.601 10.4465 144.423 10.7472 144.428 11.1165C144.423 11.4337 144.539 11.6918 144.776 11.8906C145.017 12.0895 145.415 12.2528 145.969 12.3807L147.83 12.7784C148.862 13.0009 149.629 13.3537 150.131 13.8366C150.637 14.3196 150.893 14.9517 150.898 15.733C150.893 16.4195 150.692 17.0256 150.294 17.5511C149.901 18.072 149.354 18.4792 148.654 18.7727C147.953 19.0663 147.148 19.2131 146.239 19.2131C144.904 19.2131 143.829 18.9337 143.014 18.375C142.2 17.8116 141.715 17.0279 141.558 16.0241L144.065 15.7827C144.179 16.2751 144.421 16.6468 144.79 16.8977C145.159 17.1487 145.64 17.2741 146.232 17.2741C146.842 17.2741 147.333 17.1487 147.702 16.8977C148.076 16.6468 148.263 16.3366 148.263 15.9673C148.263 15.6548 148.142 15.3968 147.901 15.1932C147.664 14.9896 147.295 14.8333 146.793 14.7244L144.932 14.3338C143.886 14.116 143.111 13.7491 142.61 13.233C142.108 12.7121 141.859 12.054 141.864 11.2585C141.859 10.5862 142.041 10.0038 142.411 9.51136C142.785 9.0142 143.303 8.63068 143.966 8.3608C144.634 8.08617 145.403 7.94886 146.274 7.94886C147.553 7.94886 148.559 8.22112 149.293 8.76562C150.031 9.31013 150.488 10.0464 150.663 10.9744ZM157.447 19.2131C156.354 19.2131 155.409 18.9858 154.614 18.5312C153.823 18.072 153.214 17.4233 152.788 16.5852C152.362 15.7424 152.149 14.7505 152.149 13.6094C152.149 12.4872 152.362 11.5024 152.788 10.6548C153.219 9.80256 153.821 9.13968 154.592 8.66619C155.364 8.18797 156.271 7.94886 157.312 7.94886C157.985 7.94886 158.619 8.05777 159.216 8.27557C159.817 8.48864 160.348 8.82008 160.807 9.26989C161.271 9.7197 161.635 10.2926 161.901 10.9886C162.166 11.6799 162.298 12.5038 162.298 13.4602V14.2486H153.357V12.5156H159.834C159.829 12.0232 159.723 11.5852 159.514 11.2017C159.306 10.8134 159.015 10.508 158.641 10.2855C158.271 10.063 157.84 9.9517 157.348 9.9517C156.822 9.9517 156.361 10.0795 155.963 10.3352C155.565 10.5862 155.255 10.9176 155.033 11.3295C154.815 11.7367 154.704 12.1842 154.699 12.6719V14.1847C154.699 14.8191 154.815 15.3636 155.047 15.8182C155.279 16.268 155.603 16.6136 156.02 16.8551C156.437 17.0919 156.924 17.2102 157.483 17.2102C157.857 17.2102 158.196 17.1581 158.499 17.054C158.802 16.9451 159.064 16.7865 159.287 16.5781C159.509 16.3698 159.678 16.1117 159.791 15.804L162.192 16.0739C162.04 16.7083 161.751 17.2623 161.325 17.7358C160.904 18.2045 160.364 18.5691 159.706 18.8295C159.048 19.0852 158.295 19.2131 157.447 19.2131ZM164.073 19V8.09091H166.566V9.90909H166.68C166.879 9.27936 167.22 8.79403 167.703 8.45312C168.19 8.10748 168.747 7.93466 169.372 7.93466C169.514 7.93466 169.672 7.94176 169.848 7.95597C170.027 7.96544 170.177 7.98201 170.295 8.00568V10.3707C170.186 10.3329 170.013 10.2997 169.776 10.2713C169.544 10.2382 169.32 10.2216 169.102 10.2216C168.633 10.2216 168.212 10.3234 167.838 10.527C167.468 10.7259 167.177 11.0028 166.964 11.358C166.751 11.7131 166.644 12.1226 166.644 12.5866V19H164.073ZM181.679 8.09091L177.794 19H174.954L171.069 8.09091H173.81L176.317 16.1946H176.431L178.945 8.09091H181.679ZM183.059 19V8.09091H185.63V19H183.059ZM184.351 6.54261C183.944 6.54261 183.594 6.40767 183.3 6.13778C183.006 5.86316 182.86 5.53409 182.86 5.15057C182.86 4.76231 183.006 4.43324 183.3 4.16335C183.594 3.88873 183.944 3.75142 184.351 3.75142C184.763 3.75142 185.113 3.88873 185.402 4.16335C185.696 4.43324 185.843 4.76231 185.843 5.15057C185.843 5.53409 185.696 5.86316 185.402 6.13778C185.113 6.40767 184.763 6.54261 184.351 6.54261ZM192.632 19.2131C191.543 19.2131 190.608 18.974 189.826 18.4957C189.05 18.0175 188.451 17.357 188.03 16.5142C187.613 15.6667 187.405 14.6913 187.405 13.5881C187.405 12.4801 187.618 11.5024 188.044 10.6548C188.47 9.80256 189.071 9.13968 189.848 8.66619C190.629 8.18797 191.552 7.94886 192.618 7.94886C193.503 7.94886 194.287 8.11222 194.969 8.43892C195.655 8.76089 196.202 9.2178 196.609 9.80966C197.016 10.3968 197.248 11.0833 197.305 11.8693H194.848C194.748 11.3437 194.512 10.9058 194.138 10.5554C193.768 10.2003 193.273 10.0227 192.653 10.0227C192.128 10.0227 191.666 10.1648 191.268 10.4489C190.871 10.7282 190.56 11.1307 190.338 11.6562C190.12 12.1818 190.011 12.8116 190.011 13.5455C190.011 14.2888 190.12 14.928 190.338 15.4631C190.556 15.9934 190.861 16.4029 191.254 16.6918C191.652 16.9759 192.118 17.1179 192.653 17.1179C193.032 17.1179 193.371 17.0469 193.669 16.9048C193.972 16.758 194.225 16.5473 194.429 16.2727C194.632 15.9981 194.772 15.6643 194.848 15.2713H197.305C197.244 16.0431 197.016 16.7273 196.623 17.3239C196.23 17.9157 195.695 18.3797 195.018 18.7159C194.341 19.0473 193.546 19.2131 192.632 19.2131ZM203.846 19.2131C202.752 19.2131 201.808 18.9858 201.012 18.5312C200.221 18.072 199.613 17.4233 199.187 16.5852C198.761 15.7424 198.548 14.7505 198.548 13.6094C198.548 12.4872 198.761 11.5024 199.187 10.6548C199.618 9.80256 200.219 9.13968 200.991 8.66619C201.763 8.18797 202.669 7.94886 203.711 7.94886C204.383 7.94886 205.018 8.05777 205.614 8.27557C206.216 8.48864 206.746 8.82008 207.205 9.26989C207.669 9.7197 208.034 10.2926 208.299 10.9886C208.564 11.6799 208.697 12.5038 208.697 13.4602V14.2486H199.755V12.5156H206.232C206.228 12.0232 206.121 11.5852 205.913 11.2017C205.704 10.8134 205.413 10.508 205.039 10.2855C204.67 10.063 204.239 9.9517 203.746 9.9517C203.221 9.9517 202.759 10.0795 202.362 10.3352C201.964 10.5862 201.654 10.9176 201.431 11.3295C201.213 11.7367 201.102 12.1842 201.097 12.6719V14.1847C201.097 14.8191 201.213 15.3636 201.445 15.8182C201.677 16.268 202.002 16.6136 202.418 16.8551C202.835 17.0919 203.323 17.2102 203.881 17.2102C204.255 17.2102 204.594 17.1581 204.897 17.054C205.2 16.9451 205.463 16.7865 205.685 16.5781C205.908 16.3698 206.076 16.1117 206.19 15.804L208.59 16.0739C208.439 16.7083 208.15 17.2623 207.724 17.7358C207.302 18.2045 206.763 18.5691 206.104 18.8295C205.446 19.0852 204.693 19.2131 203.846 19.2131ZM219.094 10.9744L216.75 11.2301C216.684 10.9934 216.568 10.7708 216.402 10.5625C216.241 10.3542 216.023 10.1861 215.749 10.0582C215.474 9.9304 215.138 9.86648 214.74 9.86648C214.205 9.86648 213.755 9.98248 213.391 10.2145C213.031 10.4465 212.853 10.7472 212.858 11.1165C212.853 11.4337 212.969 11.6918 213.206 11.8906C213.448 12.0895 213.845 12.2528 214.399 12.3807L216.26 12.7784C217.292 13.0009 218.059 13.3537 218.561 13.8366C219.068 14.3196 219.324 14.9517 219.328 15.733C219.324 16.4195 219.122 17.0256 218.725 17.5511C218.332 18.072 217.785 18.4792 217.084 18.7727C216.383 19.0663 215.578 19.2131 214.669 19.2131C213.334 19.2131 212.259 18.9337 211.445 18.375C210.63 17.8116 210.145 17.0279 209.989 16.0241L212.496 15.7827C212.61 16.2751 212.851 16.6468 213.22 16.8977C213.59 17.1487 214.07 17.2741 214.662 17.2741C215.273 17.2741 215.763 17.1487 216.132 16.8977C216.506 16.6468 216.693 16.3366 216.693 15.9673C216.693 15.6548 216.573 15.3968 216.331 15.1932C216.094 14.9896 215.725 14.8333 215.223 14.7244L213.362 14.3338C212.316 14.116 211.542 13.7491 211.04 13.233C210.538 12.7121 210.29 12.054 210.294 11.2585C210.29 10.5862 210.472 10.0038 210.841 9.51136C211.215 9.0142 211.734 8.63068 212.397 8.3608C213.064 8.08617 213.834 7.94886 214.705 7.94886C215.983 7.94886 216.989 8.22112 217.723 8.76562C218.462 9.31013 218.919 10.0464 219.094 10.9744Z" fill="#191A15"/>
</g>
<defs>
<filter id="filter0_d_1_51" x="-1" y="0" width="226" height="36" filterUnits="userSpaceOnUse" color-interpolation-filters="sRGB">
<feFlood flood-opacity="0" result="BackgroundImageFix"/>
<feColorMatrix in="SourceAlpha" type="matrix" values="0 0 0 0 0 0 0 0 0 0 0 0 0 0 0 0 0 0 127 0" result="hardAlpha"/>
<feOffset dy="4"/>
<feGaussianBlur stdDeviation="2"/>
<feComposite in2="hardAlpha" operator="out"/>
<feColorMatrix type="matrix" values="0 0 0 0 0 0 0 0 0 0 0 0 0 0 0 0 0 0 0.25 0"/>
<feBlend mode="normal" in2="BackgroundImageFix" result="effect1_dropShadow_1_51"/>
<feBlend mode="normal" in="SourceGraphic" in2="effect1_dropShadow_1_51" result="shape"/>
</filter>
</defs>
</svg>
